<svg preserveAspectRatio="none" overflow="visible" style="display: block;" width="20" height="20" viewBox="0 0 20 20" fill="none" xmlns="http://www.w3.org/2000/svg">
<g id="Frame">
<path id="Vector" d="M3.33333 5.83333V4.16667C3.33333 3.94565 3.42113 3.73369 3.57741 3.57741C3.73369 3.42113 3.94565 3.33333 4.16667 3.33333H5.83333M14.1667 3.33333H15.8333C16.0543 3.33333 16.2663 3.42113 16.4226 3.57741C16.5789 3.73369 16.6667 3.94565 16.6667 4.16667V5.83333M16.6667 14.1667V15.8333C16.6667 16.0543 16.5789 16.2663 16.4226 16.4226C16.2663 16.5789 16.0543 16.6667 15.8333 16.6667H14.1667M5.83333 16.6667H4.16667C3.94565 16.6667 3.73369 16.5789 3.57741 16.4226C3.42113 16.2663 3.33333 16.0543 3.33333 15.8333V14.1667M5.83333 10H14.1667" stroke="#1747A8" stroke-width="2" stroke-linecap="round" stroke-linejoin="round"/>
</g>
</svg>
