<svg preserveAspectRatio="none" overflow="visible" style="display: block;" width="16" height="16" viewBox="0 0 16 16" fill="none" xmlns="http://www.w3.org/2000/svg">
<g id="Frame">
<path id="Vector" d="M12 7.33333H4C3.26362 7.33333 2.66667 7.93029 2.66667 8.66667V12.6667C2.66667 13.403 3.26362 14 4 14H12C12.7364 14 13.3333 13.403 13.3333 12.6667V8.66667C13.3333 7.93029 12.7364 7.33333 12 7.33333Z" stroke="#178A50" stroke-width="2" stroke-linecap="round" stroke-linejoin="round"/>
<path id="Vector_2" d="M5.33333 7.33333V4.66667C5.33333 3.95942 5.61428 3.28115 6.11438 2.78105C6.61448 2.28095 7.29276 2 8 2C8.70724 2 9.38552 2.28095 9.88562 2.78105C10.3857 3.28115 10.6667 3.95942 10.6667 4.66667V7.33333" stroke="#178A50" stroke-width="2" stroke-linecap="round" stroke-linejoin="round"/>
</g>
</svg>
